# xmcd
#
# Track frame offsets:
#	150
#	22370
#	42001
#	52806
#	74584
#	95213
#	112505
#	127718
#	145828
#	162580
#
# Disc length: 2536 seconds
# Revision: 0
# Processed by: cddbd v1.5.2PL0 Copyright (c) Steve Scherf et al.
# Submitted via: dBpowerAMP V12.0
#
DISCID=8509e60a
DTITLE=Andy Owens and 1-800-Bluegrass - Drive South
DYEAR=2007
DGENRE=Country
TTITLE0=Drive South
TTITLE1=And When I Die
TTITLE2=Brazos Bottoms
TTITLE3=Ballad of Bessie Byrd
TTITLE4=Frank and Jessie James
TTITLE5=Sweet Melissa
TTITLE6=Amazing Grace
TTITLE7=Kentucky Waltz
TTITLE8=Danger in the Air
TTITLE9=Turn the Page
EXTD=
EXTT0=
EXTT1=
EXTT2=
EXTT3=
EXTT4=
EXTT5=
EXTT6=
EXTT7=
EXTT8=
EXTT9=
PLAYORDER=
